<?xml version="1.0" standalone="no"?><!DOCTYPE svg PUBLIC "-//W3C//DTD SVG 1.1//EN" "http://www.w3.org/Graphics/SVG/1.1/DTD/svg11.dtd"><svg height="266" node-id="1" sillyvg="true" template-height="266" template-width="311" version="1.1" viewBox="0 0 311 266" width="311" xmlns="http://www.w3.org/2000/svg" xmlns:xlink="http://www.w3.org/1999/xlink"><defs node-id="25"><mask height="318.3075" id="mask-2" maskUnits="userSpaceOnUse" node-id="15" width="372.32623" x="-31.027304" y="-26.525324"><path d="M 0.00 0.00 L 310.27 0.00 L 310.27 265.26 L 0.00 265.26 Z" fill="#ffffff" fill-rule="evenodd" node-id="30" stroke="none" target-height="265.25616" target-width="310.271" target-x="0" target-y="0.00029999018"></path></mask></defs><g node-id="32"><g node-id="33"><path d="M 245.06 172.98 L 245.06 226.29 C 245.06 226.29 235.59 235.48 235.88 239.03 C 236.18 242.58 240.92 247.03 245.06 247.03 C 249.21 247.03 261.65 233.11 262.54 231.03 C 263.43 228.96 272.61 196.97 272.61 196.97 L 245.06 172.98 Z" fill="#efdbd5" fill-rule="evenodd" group-id="1,2" id="Fill-1" node-id="11" stroke="none" target-height="74.05002" target-width="37.02501" target-x="235.5855" target-y="172.9784"></path><path d="M 14.03 234.88 L 82.45 236.96 C 82.45 236.96 96.37 223.33 96.67 222.15 C 96.97 220.96 81.27 207.04 81.27 207.04 L 64.09 210.00 C 64.09 210.00 38.91 221.55 35.95 223.92 C 32.99 226.29 8.40 224.22 8.40 224.22 C 8.40 224.22 -10.26 231.63 14.03 234.88" fill="#efdbd5" fill-rule="evenodd" group-id="1,2" id="Fill-3" node-id="12" stroke="none" target-height="29.915985" target-width="107.223" target-x="-10.2572" target-y="207.04062"></path><path d="M 68.83 160.24 L 87.49 159.65 L 73.86 142.47 L 68.83 142.47 Z" fill="#fa9389" fill-rule="evenodd" group-id="1,2" id="Fill-5" node-id="13" stroke="none" target-height="17.771011" target-width="18.659996" target-x="68.8271" target-y="142.471"></path><g node-id="34"><g node-id="36"><path d="M 89.26 224.81 C 89.26 224.81 58.46 243.18 53.42 244.36 C 48.39 245.55 23.21 250.58 7.51 247.92 C 2.78 247.62 -5.22 257.10 4.85 258.28 C 14.92 259.47 69.12 260.95 69.12 260.95 C 69.12 260.95 104.67 257.10 126.59 242.88 C 138.73 247.92 148.80 249.40 155.32 249.40 C 161.83 249.40 199.15 255.03 243.88 184.53 C 245.95 181.57 250.40 184.83 256.02 190.16 C 261.65 195.49 268.46 202.60 270.54 203.49 C 272.61 204.38 271.13 246.44 270.54 248.80 C 269.94 251.17 258.39 256.51 267.58 263.32 C 276.76 270.13 284.46 257.10 286.53 253.25 C 288.60 249.40 309.34 196.38 310.23 163.50 C 311.12 130.62 298.38 102.19 289.79 84.71 C 281.20 67.24 240.62 0.00 184.05 0.00 C 149.98 0.00 144.36 38.51 144.36 38.51 C 144.36 38.51 143.47 51.54 152.06 51.54 C 160.65 51.54 177.53 27.25 177.53 27.25 C 177.53 27.25 183.45 24.88 187.31 24.88 C 191.16 24.88 216.04 22.21 245.95 63.09 C 236.47 63.09 216.93 66.94 204.49 80.57 C 192.04 94.19 167.16 152.54 167.16 152.54 C 167.16 152.54 157.98 169.13 145.54 169.13 C 133.10 169.13 103.48 163.20 103.48 163.20 C 103.48 163.20 77.71 156.10 72.09 156.69 C 66.46 157.28 56.09 166.17 54.02 176.24 C 51.94 186.31 46.61 188.68 46.61 188.68 C 46.61 188.68 41.28 195.19 47.80 202.89 C 54.31 210.60 66.16 216.82 70.01 216.82 C 73.86 216.82 89.26 224.81 89.26 224.81" fill="#fffaf8" fill-rule="evenodd" group-id="1,2,3,5" id="Fill-7" node-id="18" stroke="none" target-height="270.12997" target-width="316.33902" target-x="-5.2224" target-y="0.00029999018"></path></g></g><path d="M 204.49 80.57 C 192.05 94.19 167.16 152.54 167.16 152.54 C 167.16 152.54 157.98 169.13 145.54 169.13 C 141.27 169.13 134.98 168.43 128.55 167.51 C 129.33 169.96 129.99 172.98 129.55 175.35 C 128.66 180.09 119.18 200.82 121.25 207.04 C 123.33 213.26 129.25 224.81 139.03 223.92 C 148.80 223.04 165.09 210.60 176.94 193.71 C 179.90 188.68 205.97 183.35 215.15 174.46 C 224.33 165.57 239.73 142.47 239.14 118.48 C 238.64 98.28 231.43 74.31 224.92 67.23 C 217.72 69.93 210.32 74.17 204.49 80.57" fill="#fccac8" fill-rule="evenodd" group-id="1,2" id="Fill-9" node-id="19" stroke="none" target-height="157.582" target-width="120.55201" target-x="119.1804" target-y="67.2313"></path><path d="M 61.42 191.64 C 61.42 191.64 65.57 197.27 78.60 197.27 C 91.63 197.27 115.03 183.94 115.03 175.94 C 115.03 167.94 85.71 161.72 74.46 161.72 C 63.20 161.72 60.24 179.20 58.46 179.49 C 56.68 179.79 54.31 184.83 61.42 191.64" fill="#fccac8" fill-rule="evenodd" group-id="1,2" id="Fill-11" node-id="20" stroke="none" target-height="35.543" target-width="60.72001" target-x="54.3134" target-y="161.7235"></path><path d="M 59.94 188.53 C 59.37 188.53 58.91 188.06 58.91 187.49 C 58.91 187.25 58.99 187.02 59.14 186.84 C 59.18 186.73 59.24 186.54 59.29 186.38 C 59.76 184.86 60.65 182.03 62.95 181.45 C 65.53 180.81 70.90 182.46 71.51 182.65 C 72.05 182.83 72.36 183.41 72.18 183.95 C 72.01 184.50 71.43 184.80 70.89 184.63 C 68.82 183.98 64.97 183.08 63.45 183.46 C 62.28 183.75 61.59 185.94 61.26 187.00 C 61.00 187.82 60.78 188.53 59.94 188.53 L 59.94 188.53 Z" fill="#b25452" fill-rule="evenodd" group-id="1,2" id="Fill-13" node-id="21" stroke="none" target-height="7.7169952" target-width="13.449001" target-x="58.9064" target-y="180.8099"></path><path d="M 43.35 190.16 C 43.95 189.27 46.91 190.45 47.20 191.64 C 47.50 192.82 45.72 194.60 44.54 194.30 C 43.35 194.01 42.76 191.05 43.35 190.16" fill="#b25452" fill-rule="evenodd" group-id="1,2" id="Fill-15" node-id="22" stroke="none" target-height="5.332016" target-width="4.7389984" target-x="42.762" target-y="189.26898"></path><path d="M 85.12 162.32 C 85.12 162.32 100.82 174.16 100.82 173.57 C 100.82 172.98 101.41 148.39 101.41 148.39 L 96.67 149.28 L 85.12 162.32 Z" fill="#fa9389" fill-rule="evenodd" group-id="1,2" id="Fill-17" node-id="23" stroke="none" target-height="25.770004" target-width="16.290993" target-x="85.1182" target-y="148.3943"></path></g></g></svg>